<?xml version="1.0" standalone="no"?>
<!DOCTYPE svg PUBLIC "-//W3C//DTD SVG 20010904//EN"
 "http://www.w3.org/TR/2001/REC-SVG-20010904/DTD/svg10.dtd">
<svg version="1.0" xmlns="http://www.w3.org/2000/svg"
 width="247.000000pt" height="247.000000pt" viewBox="0 0 247.000000 247.000000"
 preserveAspectRatio="xMidYMid meet">
<metadata>
Created by potrace 1.11, written by Peter Selinger 2001-2013
</metadata>
<g transform="translate(0.000000,247.000000) scale(0.100000,-0.100000)"
fill="#000000" stroke="none">
<path d="M83 1582 l-43 -3 0 -345 c0 -268 3 -344 13 -345 15 -1 419 -1 429 0
12 2 101 132 94 138 -4 4 -88 7 -189 7 l-182 1 0 273 c0 149 -2 272 -5 273
-22 3 -82 3 -117 1z"/>
<path d="M638 1580 l-38 -5 91 -155 c50 -85 91 -159 92 -164 1 -5 -17 -10 -40
-10 -44 -1 -46 -3 -106 -103 -5 -8 16 -11 80 -11 49 0 100 -1 115 -1 23 -1 35
-16 93 -118 37 -65 69 -120 71 -122 6 -7 156 -6 160 1 3 4 -6 27 -19 50 -81
145 -343 597 -357 617 -18 25 -62 32 -142 21z"/>
<path d="M877 1582 l-38 -3 20 -32 c10 -18 29 -50 41 -72 38 -68 332 -580 336
-584 8 -9 141 -3 180 8 23 6 56 25 73 43 82 84 60 236 -42 287 l-38 19 29 23
c43 35 62 70 67 123 6 54 -13 108 -48 138 -52 46 -66 48 -309 51 -128 1 -250
1 -271 -1z"/>
<path d="M1480 1580 c0 -3 77 -81 170 -175 l170 -170 -170 -169 c-94 -93 -168
-171 -165 -174 3 -3 64 -5 137 -5 l132 1 103 104 102 104 103 -103 103 -103
139 0 139 0 -172 172 -172 172 172 172 173 173 -139 0 -138 1 -47 -48 c-26
-26 -73 -72 -104 -102 l-56 -54 -105 104 -104 104 -135 0 c-75 1 -136 -1 -136
-4z"/>
</g>
</svg>
